<svg xmlns="http://www.w3.org/2000/svg" viewBox="0 0 50 50">
  <path id="Imported Path"
        fill="none" stroke="black" stroke-width="1"
        d="M 48.18,14.79
           C 48.18,14.79 42.72,20.24 42.72,20.24
             42.30,20.66 41.67,20.80 41.11,20.60
             41.11,20.60 38.06,19.45 38.06,19.45
             37.65,19.30 37.31,18.97 37.17,18.56
             37.17,18.56 36.03,15.51 36.03,15.51
             35.82,14.95 35.96,14.32 36.38,13.90
             36.38,13.90 41.84,8.44 41.84,8.44
             38.96,7.73 35.81,8.51 33.58,10.76
             31.13,13.24 30.49,16.86 31.64,19.93
             31.64,19.93 28.12,23.46 28.12,23.46
             28.12,23.46 33.36,28.31 33.36,28.31
             33.36,28.31 36.68,24.99 36.68,24.99
             39.78,26.16 43.41,25.50 45.90,23.01
             48.12,20.77 48.89,17.64 48.18,14.79 Z
           M 9.82,41.75
           C 8.43,43.14 8.43,45.40 9.82,46.80
             9.82,46.80 9.82,46.80 9.82,46.80
             11.22,48.19 13.48,48.19 14.87,46.80
             14.87,46.80 24.89,36.78 24.89,36.78
             24.89,36.78 20.04,31.53 20.04,31.53
             20.04,31.53 9.82,41.75 9.82,41.75 Z
           M 43.37,40.30
           C 43.37,40.30 18.18,17.02 18.18,17.02
             18.18,17.02 13.61,21.59 13.61,21.59
             13.61,21.59 36.88,46.78 36.88,46.78
             38.16,48.14 40.32,48.18 41.65,46.86
             41.65,46.86 43.45,45.06 43.45,45.06
             44.78,43.74 44.74,41.58 43.37,40.30 Z
           M 10.80,20.14
           C 10.93,20.15 11.05,20.18 11.17,20.23
             11.35,20.33 11.56,20.30 11.71,20.16
             11.71,20.16 16.50,15.36 16.50,15.36
             16.72,15.15 16.72,14.79 16.50,14.58
             16.24,14.32 16.24,13.89 16.50,13.62
             16.50,13.62 17.81,12.31 17.81,12.31
             18.08,12.05 18.51,12.05 18.77,12.31
             18.77,12.31 19.16,12.71 19.16,12.71
             19.16,12.71 22.29,9.58 22.29,9.58
             23.04,8.83 23.04,7.62 22.29,6.87
             22.29,6.87 18.13,2.71 18.13,2.71
             17.37,1.96 16.16,1.96 15.42,2.71
             15.42,2.71 12.29,5.84 12.29,5.84
             12.29,5.84 12.62,6.16 12.62,6.16
             12.96,6.50 12.96,7.07 12.62,7.41
             12.62,7.41 11.61,8.42 11.61,8.42
             11.27,8.76 10.70,8.76 10.36,8.42
             10.19,8.24 9.90,8.24 9.73,8.42
             9.73,8.42 4.86,13.28 4.86,13.28
             4.69,13.46 4.69,13.75 4.86,13.93
             5.04,14.10 5.07,14.38 4.92,14.60
             -1.36,23.88 3.10,28.42 3.10,28.42
             3.65,24.36 7.08,20.59 10.44,20.14
             10.55,20.13 10.68,20.13 10.80,20.14 Z" />
</svg>
